<?xml version="1.0" standalone="no"?><!DOCTYPE svg PUBLIC "-//W3C//DTD SVG 1.1//EN" "http://www.w3.org/Graphics/SVG/1.1/DTD/svg11.dtd"><svg t="1552569787445" class="icon" style="" viewBox="0 0 1037 1024" version="1.1" xmlns="http://www.w3.org/2000/svg" p-id="8223" xmlns:xlink="http://www.w3.org/1999/xlink" width="16.203125" height="16"><defs><style type="text/css"></style></defs><path d="M207.778953 502.517018a21.721703 21.721703 0 0 0 21.559601-21.559602V21.559601a21.721703 21.721703 0 0 0-43.281304 0v458.749406A21.721703 21.721703 0 0 0 207.778953 502.517018zM369.39491 315.451005a21.559601 21.559601 0 0 0 21.559601-21.721703V21.559601a21.559601 21.559601 0 1 0-43.119202 0v272.169701a21.559601 21.559601 0 0 0 21.559601 21.721703zM531.010867 407.200886a21.559601 21.559601 0 0 0 21.559601-21.559601V21.559601a21.559601 21.559601 0 1 0-43.119202 0v364.081684a21.559601 21.559601 0 0 0 21.559601 21.559601zM692.626824 210.732943a21.721703 21.721703 0 0 0 21.721703-21.559601V21.559601a21.721703 21.721703 0 0 0-43.281304 0v167.613741A21.721703 21.721703 0 0 0 692.626824 210.732943z" p-id="8224" fill="#ffffff"></path><path d="M1016.02084 299.078677a21.559601 21.559601 0 0 0-21.721703 21.559601v638.520817H875.478178V466.044008a21.721703 21.721703 0 0 0-43.281305 0v493.115087h-118.334652V694.770302a21.721703 21.721703 0 0 0-43.281305 0v264.388793h-118.010448v-159.184423a21.559601 21.559601 0 1 0-43.119202 0v159.184423h-118.496755V762.691151a21.559601 21.559601 0 0 0-43.119202 0v196.467944h-118.496755v-20.911193a21.721703 21.721703 0 1 0-43.281304 0v20.911193H93.983164l288.217825-421.465886 167.289536 104.55596a32.420453 32.420453 0 0 0 43.767611-8.915625L954.584082 116.065221l14.427102 76.025962a32.420453 32.420453 0 0 0 32.420453 26.422669 25.125851 25.125851 0 0 0 5.997783 0 32.420453 32.420453 0 0 0 25.287953-38.580339L1005.159989 30.79943a32.420453 32.420453 0 0 0-14.427102-20.74909 32.420453 32.420453 0 0 0-24.315339-5.02517l-149.134083 28.529999A32.420453 32.420453 0 1 0 829.441135 97.261358l68.08295-12.968181-340.414753 486.306791-166.965332-104.880164a32.420453 32.420453 0 0 0-44.091816 9.239829L64.966859 886.53728V35.500396a32.420453 32.420453 0 0 0-64.840906 0v957.538072a25.125851 25.125851 0 0 0 0 5.02517 19.614374 19.614374 0 0 0 0 2.917841 22.532215 22.532215 0 0 0 0.972614 3.079943 14.751306 14.751306 0 0 0 1.45892 2.755738 24.477442 24.477442 0 0 0 1.458921 2.917841l1.945227 2.431534 2.107329 2.431534a20.100681 20.100681 0 0 0 3.404148 2.91784l1.296818 1.134716a24.477442 24.477442 0 0 0 4.538863 2.431534h1.621023l4.052557 1.296818h1.621022a35.662498 35.662498 0 0 0 5.835682 0h971.965173a32.420453 32.420453 0 0 0 28.205794-16.210226 21.559601 21.559601 0 0 0 6.970397-16.210226V320.638278a21.559601 21.559601 0 0 0-21.559601-21.559601z" p-id="8225" fill="#ffffff"></path></svg>